# xmcd CD database file
#
# Track frame offsets:
#	150
#	20343
#	37882
#	57401
#	79208
#	97974
#	116710
#	135997
#	155951
#	176663
#	195233
#	211745
#
# Disc length: 3065 seconds
#
# Revision: 2
# Processed by: cddbd v1.4PL0 Copyright (c) Steve Scherf et al.
# Submitted via: NeoAudio 9.9.9
#
DISCID=970bf70c
DTITLE=Various Artist - Merengue en la Décima Avenida N.Y.
DYEAR=2000
DGENRE=Merengue
TTITLE0=Sabrosos del Merengue - El Velon
TTITLE1=Rubby Perez - Enamorao
TTITLE2=Caña Brava - El Amor Nació así
TTITLE3=Banda Gorda - Aquí, pero allá
TTITLE4=K-Libre - Dime que Me Quieres
TTITLE5=Grupo Manía - Loco de Amor
TTITLE6=Karis - Mujer Malvada
TTITLE7=Wao - Qué Te Va' Sin Mi
TTITLE8=Línea - Esperanza
TTITLE9=Manny Manuel and Sabrosos del Merengue - Y quién puede Ser
TTITLE10=Nelson de la Olla and Banda Chula - Esto es pa' Goza
TTITLE11=Dionis and Banda Flakka - Te Olvidaste de Mi
EXTD=YEAR: 2000
EXTT0=
EXTT1=
EXTT2=
EXTT3=
EXTT4=
EXTT5=
EXTT6=
EXTT7=
EXTT8=
EXTT9=
EXTT10=
EXTT11=
PLAYORDER=
